<?xml version="1.0" encoding="utf-8"?>
<!-- Generator: Adobe Illustrator 24.1.1, SVG Export Plug-In . SVG Version: 6.00 Build 0)  -->
<svg version="1.1" id="Слой_1" xmlns="http://www.w3.org/2000/svg" xmlns:xlink="http://www.w3.org/1999/xlink" x="0px" y="0px"
	 viewBox="0 0 20 16" style="enable-background:new 0 0 20 16;" xml:space="preserve">
<style type="text/css">
	.st0{fill:#3F0E40;}
</style>
<path id="compose-dm" class="st0" d="M8.9,10.7l1.4-0.6c0.4-0.2,0.8-0.4,1.1-0.7l6.3-6.3c0.5-0.5,0.4-1.4-0.2-2l-0.6-0.6
	c-0.6-0.6-1.5-0.7-2-0.2L8.6,6.6C8.2,6.9,8,7.3,7.8,7.8L7.3,9.1C6.9,10.2,7.8,11.1,8.9,10.7z M13.5,15.2c2,0,3.7-1.6,3.7-3.7V6.8
	c0-0.9-1.2-0.9-1.2,0v4.5c0,1.6-1.1,2.7-2.7,2.7H6.7C5.1,14,4,12.9,4,11.3V4.7C4,3.1,5.1,2,6.7,2h4.5c1,0,0.9-1.2,0-1.2H6.5
	c-2,0-3.7,1.6-3.7,3.7v7.1c0,2,1.6,3.7,3.7,3.7H13.5z M15.8,3.4l-1.1-1.1l0.9-0.9c0.1-0.1,0.3-0.1,0.5,0.1L16.6,2
	c0.2,0.2,0.2,0.4,0.1,0.4L15.8,3.4z M8.4,9.6l0.6-1.6C9,7.9,9.1,7.8,9.2,7.6l4.6-4.6l1.1,1.1l-4.6,4.6C10.2,8.9,10.1,9,9.9,9.1
	L8.4,9.6C8.4,9.7,8.4,9.7,8.4,9.6z"/>
</svg>
